<svg width="28" height="28" viewBox="0 0 28 28" fill="none" xmlns="http://www.w3.org/2000/svg">
<path fill-rule="evenodd" clip-rule="evenodd" d="M14.0001 1.16666C6.91258 1.16666 1.16675 6.91249 1.16675 14C1.16675 21.0875 6.91258 26.8333 14.0001 26.8333C21.0876 26.8333 26.8334 21.0875 26.8334 14C26.8334 6.91249 21.0876 1.16666 14.0001 1.16666ZM19.5627 11.83C19.6652 11.7129 19.7432 11.5765 19.7921 11.4289C19.841 11.2812 19.86 11.1252 19.8477 10.9701C19.8355 10.8151 19.7924 10.664 19.7209 10.5258C19.6494 10.3876 19.5511 10.2651 19.4316 10.1656C19.312 10.066 19.1738 9.99128 19.025 9.9459C18.8762 9.90051 18.7199 9.88535 18.5651 9.90129C18.4104 9.91723 18.2604 9.96396 18.124 10.0387C17.9875 10.1135 17.8674 10.2148 17.7707 10.3367L12.7541 16.3555L10.1582 13.7585C9.93821 13.546 9.64351 13.4284 9.33761 13.431C9.03172 13.4337 8.7391 13.5564 8.52279 13.7727C8.30648 13.989 8.18379 14.2816 8.18113 14.5875C8.17847 14.8934 8.29606 15.1881 8.50858 15.4082L12.0086 18.9082C12.1232 19.0227 12.2605 19.1121 12.4116 19.1707C12.5627 19.2293 12.7243 19.2558 12.8862 19.2484C13.0481 19.2411 13.2067 19.2001 13.3519 19.128C13.4971 19.056 13.6256 18.9545 13.7294 18.83L19.5627 11.83Z" fill="#7EE7C0"/>
</svg>
