<svg width="28" height="28" viewBox="0 0 28 28" fill="none" xmlns="http://www.w3.org/2000/svg">
<path fill-rule="evenodd" clip-rule="evenodd" d="M1.16663 3.31108C1.16663 2.74237 1.39255 2.19695 1.79469 1.79481C2.19683 1.39267 2.74225 1.16675 3.31096 1.16675H24.6866C24.9685 1.16629 25.2476 1.22142 25.5081 1.329C25.7686 1.43657 26.0054 1.59446 26.2047 1.79364C26.4041 1.99282 26.5623 2.22938 26.6702 2.48976C26.778 2.75015 26.8334 3.02925 26.8333 3.31108V24.6867C26.8336 24.9686 26.7783 25.2478 26.6706 25.5083C26.5629 25.7688 26.4049 26.0056 26.2056 26.2049C26.0064 26.4043 25.7697 26.5625 25.5093 26.6703C25.2488 26.7781 24.9697 26.8336 24.6878 26.8334H3.31096C3.02926 26.8334 2.75033 26.7779 2.49009 26.6701C2.22985 26.5622 1.99341 26.4042 1.79427 26.2049C1.59514 26.0057 1.43721 25.7692 1.32952 25.5089C1.22182 25.2486 1.16647 24.9696 1.16663 24.6879V3.31108ZM11.326 10.9528H14.8015V12.6981C15.3031 11.6948 16.5865 10.7918 18.515 10.7918C22.2121 10.7918 23.0883 12.7903 23.0883 16.4571V23.2494H19.3468V17.2924C19.3468 15.2041 18.8451 14.0258 17.5711 14.0258C15.8036 14.0258 15.0686 15.2963 15.0686 17.2924V23.2494H11.326V10.9528ZM4.90929 23.0896H8.65196V10.7918H4.90929V23.0884V23.0896ZM9.18746 6.78075C9.19452 7.1012 9.13749 7.41984 9.01974 7.71795C8.90198 8.01607 8.72587 8.28766 8.50173 8.51679C8.27759 8.74592 8.00994 8.92797 7.71449 9.05226C7.41904 9.17655 7.10174 9.24057 6.78121 9.24057C6.46068 9.24057 6.14338 9.17655 5.84793 9.05226C5.55248 8.92797 5.28483 8.74592 5.06069 8.51679C4.83655 8.28766 4.66043 8.01607 4.54268 7.71795C4.42493 7.41984 4.3679 7.1012 4.37496 6.78075C4.38881 6.15175 4.64841 5.55317 5.09816 5.11322C5.54791 4.67326 6.15205 4.4269 6.78121 4.4269C7.41037 4.4269 8.01451 4.67326 8.46426 5.11322C8.91401 5.55317 9.17361 6.15175 9.18746 6.78075V6.78075Z" fill="white"/>
</svg>
