<svg width="28" height="28" viewBox="0 0 28 28" fill="none" xmlns="http://www.w3.org/2000/svg">
<path d="M24.0834 1.16675H3.91675C2.39852 1.16675 1.16675 2.39852 1.16675 3.91675V24.0834C1.16675 25.6016 2.39852 26.8334 3.91675 26.8334H24.0834C25.6016 26.8334 26.8334 25.6016 26.8334 24.0834V3.91675C26.8334 2.39852 25.6016 1.16675 24.0834 1.16675ZM21.2819 10.2647C21.2933 10.4251 21.2933 10.5912 21.2933 10.7516C21.2933 15.7188 17.5121 21.4423 10.6027 21.4423C8.47144 21.4423 6.49487 20.8235 4.83341 19.7579C5.13706 19.7923 5.42925 19.8037 5.73862 19.8037C7.49748 19.8037 9.1131 19.2079 10.4022 18.1996C8.75216 18.1652 7.36571 17.0824 6.89019 15.5928C7.46883 15.6787 7.99019 15.6787 8.58602 15.524C6.86727 15.1746 5.57821 13.6621 5.57821 11.8345V11.7886C6.07664 12.0694 6.66102 12.2412 7.27404 12.2641C6.75866 11.9213 6.33616 11.4563 6.04426 10.9104C5.75235 10.3646 5.60011 9.755 5.60112 9.13602C5.60112 8.43706 5.78446 7.79539 6.11102 7.23966C7.96154 9.51987 10.7402 11.0095 13.8569 11.1699C13.324 8.62039 15.2319 6.55216 17.5235 6.55216C18.6063 6.55216 19.5803 7.00477 20.2678 7.7381C21.1157 7.57769 21.9292 7.26258 22.6511 6.83289C22.3704 7.70373 21.7803 8.43706 21.0011 8.90112C21.7574 8.82091 22.4907 8.60894 23.1667 8.31675C22.6569 9.06727 22.0152 9.73185 21.2819 10.2647Z" fill="white"/>
</svg>
