<svg width="211" height="47" viewBox="0 0 211 47" fill="none" xmlns="http://www.w3.org/2000/svg">
<g clip-path="url(#clip0_405_382)">
<path d="M8.64799 36.9999L0.00799561 1.95989H8.12L14.888 31.7199L13.208 30.6159H17.576L15.704 31.7199L20.936 3.25589H27.464L20.6 36.9999H8.64799ZM29.528 36.9999L22.136 3.25589H29L35.048 31.7199L33.224 30.6159H37.4L35.816 31.7199L41.72 1.95989H49.4L41.72 36.9999H29.528ZM54.6114 36.9999V10.6959H62.2914V36.9999H54.6114ZM51.1074 16.3599V10.6959H62.2914V16.3599H51.1074ZM57.5874 8.10389C56.1474 8.10389 55.0754 7.73589 54.3714 6.99989C53.6994 6.23189 53.3634 5.27189 53.3634 4.11989C53.3634 2.93589 53.6994 1.97589 54.3714 1.23989C55.0754 0.47189 56.1474 0.0878906 57.5874 0.0878906C59.0274 0.0878906 60.0834 0.47189 60.7554 1.23989C61.4594 1.97589 61.8114 2.93589 61.8114 4.11989C61.8114 5.27189 61.4594 6.23189 60.7554 6.99989C60.0834 7.73589 59.0274 8.10389 57.5874 8.10389ZM69.3946 36.9999V10.6959H75.4906V21.9759H75.0586C75.0586 19.2879 75.3946 17.0479 76.0666 15.2559C76.7706 13.4639 77.8266 12.1199 79.2346 11.2239C80.6426 10.3279 82.3546 9.87989 84.3706 9.87989H84.7066C87.7786 9.87989 90.1146 10.8879 91.7146 12.9039C93.3466 14.8879 94.1626 17.9119 94.1626 21.9759V36.9999H86.4826V21.5439C86.4826 20.1359 86.0666 18.9839 85.2346 18.0879C84.4026 17.1919 83.2826 16.7439 81.8746 16.7439C80.4346 16.7439 79.2666 17.2079 78.3706 18.1359C77.5066 19.0319 77.0746 20.2159 77.0746 21.6879V36.9999H69.3946ZM108.051 26.9679V20.1519H114.339C115.555 20.1519 116.595 19.9119 117.459 19.4319C118.355 18.9519 119.043 18.2799 119.523 17.4159C120.003 16.5199 120.243 15.4959 120.243 14.3439C120.243 13.1279 120.003 12.0879 119.523 11.2239C119.043 10.3279 118.355 9.65589 117.459 9.20789C116.595 8.72789 115.555 8.48789 114.339 8.48789H108.051V1.67189H113.955C116.931 1.67189 119.475 2.16789 121.587 3.15989C123.731 4.15189 125.363 5.55989 126.483 7.38389C127.635 9.20789 128.211 11.3999 128.211 13.9599V14.7279C128.211 17.2239 127.635 19.3999 126.483 21.2559C125.363 23.0799 123.731 24.4879 121.587 25.4799C119.475 26.4719 116.931 26.9679 113.955 26.9679H108.051ZM101.139 36.9999V1.67189H109.011V36.9999H101.139ZM144.443 37.9119C142.203 37.9119 140.219 37.5279 138.491 36.7599C136.795 35.9919 135.371 34.9679 134.219 33.6879C133.099 32.3759 132.235 30.9199 131.627 29.3199C131.051 27.6879 130.763 26.0239 130.763 24.3279V23.3679C130.763 21.6079 131.051 19.9279 131.627 18.3279C132.235 16.6959 133.099 15.2399 134.219 13.9599C135.339 12.6799 136.731 11.6719 138.395 10.9359C140.091 10.1679 142.011 9.78389 144.155 9.78389C146.971 9.78389 149.339 10.4239 151.259 11.7039C153.211 12.9519 154.699 14.5999 155.723 16.6479C156.747 18.6639 157.259 20.8719 157.259 23.2719V25.8639H133.979V21.4959H152.603L150.107 23.5119C150.107 21.9439 149.883 20.5999 149.435 19.4799C148.987 18.3599 148.315 17.5119 147.419 16.9359C146.555 16.3279 145.467 16.0239 144.155 16.0239C142.811 16.0239 141.675 16.3279 140.747 16.9359C139.819 17.5439 139.115 18.4399 138.635 19.6239C138.155 20.7759 137.915 22.1999 137.915 23.8959C137.915 25.4639 138.139 26.8399 138.587 28.0239C139.035 29.1759 139.739 30.0719 140.699 30.7119C141.659 31.3519 142.907 31.6719 144.443 31.6719C145.851 31.6719 147.003 31.3999 147.899 30.8559C148.795 30.3119 149.403 29.6399 149.723 28.8399H156.779C156.395 30.5999 155.643 32.1679 154.523 33.5439C153.403 34.9199 151.995 35.9919 150.299 36.7599C148.603 37.5279 146.651 37.9119 144.443 37.9119ZM162.348 36.9999V10.6959H168.444V21.9759H168.3C168.3 18.2639 169.084 15.3999 170.652 13.3839C172.252 11.3679 174.556 10.3599 177.564 10.3599H178.572V16.9839H176.652C174.54 16.9839 172.908 17.5599 171.756 18.7119C170.604 19.8319 170.028 21.4639 170.028 23.6079V36.9999H162.348ZM182.551 46.5999V10.6959H188.647V22.0719L187.831 22.0239C187.959 19.3999 188.503 17.1919 189.463 15.3999C190.423 13.5759 191.719 12.2159 193.351 11.3199C194.983 10.3919 196.823 9.92789 198.871 9.92789C200.695 9.92789 202.343 10.2639 203.815 10.9359C205.319 11.6079 206.599 12.5519 207.655 13.7679C208.743 14.9519 209.559 16.3599 210.103 17.9919C210.679 19.5919 210.967 21.3519 210.967 23.2719V24.3759C210.967 26.2639 210.695 28.0399 210.151 29.7039C209.607 31.3359 208.807 32.7599 207.751 33.9759C206.727 35.1919 205.463 36.1519 203.959 36.8559C202.487 37.5279 200.791 37.8639 198.871 37.8639C196.887 37.8639 195.095 37.4639 193.495 36.6639C191.927 35.8319 190.663 34.5839 189.703 32.9199C188.743 31.2239 188.215 29.0799 188.119 26.4879L190.231 29.3679V46.5999H182.551ZM196.711 31.4319C198.023 31.4319 199.159 31.1119 200.119 30.4719C201.111 29.8319 201.879 28.9359 202.423 27.7839C202.967 26.6319 203.239 25.3039 203.239 23.7999C203.239 22.2959 202.967 20.9839 202.423 19.8639C201.879 18.7439 201.127 17.8799 200.167 17.2719C199.207 16.6319 198.055 16.3119 196.711 16.3119C195.559 16.3119 194.471 16.5839 193.447 17.1279C192.423 17.6719 191.591 18.4559 190.951 19.4799C190.343 20.4719 190.039 21.6879 190.039 23.1279V24.9039C190.039 26.2799 190.359 27.4639 190.999 28.4559C191.671 29.4159 192.519 30.1519 193.543 30.6639C194.567 31.1759 195.623 31.4319 196.711 31.4319Z" fill="black"/>
</g>
<defs>
<clipPath id="clip0_405_382">
<rect width="211" height="47" fill="white"/>
</clipPath>
</defs>
</svg>
