<svg width="211" height="47" viewBox="0 0 211 47" fill="none" xmlns="http://www.w3.org/2000/svg">
<path d="M8.64 36.912L0 1.872H8.112L14.88 31.632L13.2 30.528H17.568L15.696 31.632L20.928 3.168H27.456L20.592 36.912H8.64ZM29.52 36.912L22.128 3.168H28.992L35.04 31.632L33.216 30.528H37.392L35.808 31.632L41.712 1.872H49.392L41.712 36.912H29.52ZM54.6034 36.912V10.608H62.2834V36.912H54.6034ZM51.0994 16.272V10.608H62.2834V16.272H51.0994ZM57.5794 8.016C56.1394 8.016 55.0674 7.648 54.3634 6.912C53.6914 6.144 53.3554 5.184 53.3554 4.032C53.3554 2.848 53.6914 1.888 54.3634 1.152C55.0674 0.384 56.1394 0 57.5794 0C59.0194 0 60.0754 0.384 60.7474 1.152C61.4514 1.888 61.8034 2.848 61.8034 4.032C61.8034 5.184 61.4514 6.144 60.7474 6.912C60.0754 7.648 59.0194 8.016 57.5794 8.016ZM69.3866 36.912V10.608H75.4826V21.888H75.0506C75.0506 19.2 75.3866 16.96 76.0586 15.168C76.7626 13.376 77.8186 12.032 79.2266 11.136C80.6346 10.24 82.3466 9.792 84.3626 9.792H84.6986C87.7706 9.792 90.1066 10.8 91.7066 12.816C93.3386 14.8 94.1546 17.824 94.1546 21.888V36.912H86.4746V21.456C86.4746 20.048 86.0586 18.896 85.2266 18C84.3946 17.104 83.2746 16.656 81.8666 16.656C80.4266 16.656 79.2586 17.12 78.3626 18.048C77.4986 18.944 77.0666 20.128 77.0666 21.6V36.912H69.3866ZM108.043 26.88V20.064H114.331C115.547 20.064 116.587 19.824 117.451 19.344C118.347 18.864 119.035 18.192 119.515 17.328C119.995 16.432 120.235 15.408 120.235 14.256C120.235 13.04 119.995 12 119.515 11.136C119.035 10.24 118.347 9.568 117.451 9.12C116.587 8.64 115.547 8.4 114.331 8.4H108.043V1.584H113.947C116.923 1.584 119.467 2.08 121.579 3.072C123.723 4.064 125.355 5.472 126.475 7.296C127.627 9.12 128.203 11.312 128.203 13.872V14.64C128.203 17.136 127.627 19.312 126.475 21.168C125.355 22.992 123.723 24.4 121.579 25.392C119.467 26.384 116.923 26.88 113.947 26.88H108.043ZM101.131 36.912V1.584H109.003V36.912H101.131ZM144.435 37.824C142.195 37.824 140.211 37.44 138.483 36.672C136.787 35.904 135.363 34.88 134.211 33.6C133.091 32.288 132.227 30.832 131.619 29.232C131.043 27.6 130.755 25.936 130.755 24.24V23.28C130.755 21.52 131.043 19.84 131.619 18.24C132.227 16.608 133.091 15.152 134.211 13.872C135.331 12.592 136.723 11.584 138.387 10.848C140.083 10.08 142.003 9.696 144.147 9.696C146.963 9.696 149.331 10.336 151.251 11.616C153.203 12.864 154.691 14.512 155.715 16.56C156.739 18.576 157.251 20.784 157.251 23.184V25.776H133.971V21.408H152.595L150.099 23.424C150.099 21.856 149.875 20.512 149.427 19.392C148.979 18.272 148.307 17.424 147.411 16.848C146.547 16.24 145.459 15.936 144.147 15.936C142.803 15.936 141.667 16.24 140.739 16.848C139.811 17.456 139.107 18.352 138.627 19.536C138.147 20.688 137.907 22.112 137.907 23.808C137.907 25.376 138.131 26.752 138.579 27.936C139.027 29.088 139.731 29.984 140.691 30.624C141.651 31.264 142.899 31.584 144.435 31.584C145.843 31.584 146.995 31.312 147.891 30.768C148.787 30.224 149.395 29.552 149.715 28.752H156.771C156.387 30.512 155.635 32.08 154.515 33.456C153.395 34.832 151.987 35.904 150.291 36.672C148.595 37.44 146.643 37.824 144.435 37.824ZM162.34 36.912V10.608H168.436V21.888H168.292C168.292 18.176 169.076 15.312 170.644 13.296C172.244 11.28 174.548 10.272 177.556 10.272H178.564V16.896H176.644C174.532 16.896 172.9 17.472 171.748 18.624C170.596 19.744 170.02 21.376 170.02 23.52V36.912H162.34ZM182.543 46.512V10.608H188.639V21.984L187.823 21.936C187.951 19.312 188.495 17.104 189.455 15.312C190.415 13.488 191.711 12.128 193.343 11.232C194.975 10.304 196.815 9.84 198.863 9.84C200.687 9.84 202.335 10.176 203.807 10.848C205.311 11.52 206.591 12.464 207.647 13.68C208.735 14.864 209.551 16.272 210.095 17.904C210.671 19.504 210.959 21.264 210.959 23.184V24.288C210.959 26.176 210.687 27.952 210.143 29.616C209.599 31.248 208.799 32.672 207.743 33.888C206.719 35.104 205.455 36.064 203.951 36.768C202.479 37.44 200.783 37.776 198.863 37.776C196.879 37.776 195.087 37.376 193.487 36.576C191.919 35.744 190.655 34.496 189.695 32.832C188.735 31.136 188.207 28.992 188.111 26.4L190.223 29.28V46.512H182.543ZM196.703 31.344C198.015 31.344 199.151 31.024 200.111 30.384C201.103 29.744 201.871 28.848 202.415 27.696C202.959 26.544 203.231 25.216 203.231 23.712C203.231 22.208 202.959 20.896 202.415 19.776C201.871 18.656 201.119 17.792 200.159 17.184C199.199 16.544 198.047 16.224 196.703 16.224C195.551 16.224 194.463 16.496 193.439 17.04C192.415 17.584 191.583 18.368 190.943 19.392C190.335 20.384 190.031 21.6 190.031 23.04V24.816C190.031 26.192 190.351 27.376 190.991 28.368C191.663 29.328 192.511 30.064 193.535 30.576C194.559 31.088 195.615 31.344 196.703 31.344Z" fill="white"/>
</svg>
